<svg xmlns="http://www.w3.org/2000/svg" xmlns:xlink="http://www.w3.org/1999/xlink" width="452" height="427" viewBox="0 0 452 427"><defs><style>.a{fill:#fff;stroke:#707070;}.b{clip-path:url(#a);}.c{opacity:0.72;}.d,.e{fill:#4acdf4;}.d{opacity:0.04;}.e{opacity:0.03;}.f{filter:url(#h);}.g{filter:url(#f);}.h{filter:url(#d);}.i{filter:url(#b);}</style><clipPath id="a"><rect class="a" width="452" height="427" transform="translate(-77)"/></clipPath><filter id="b" x="-13.258" y="-315.258" width="684.517" height="684.517" filterUnits="userSpaceOnUse"><feOffset dy="3" input="SourceAlpha"/><feGaussianBlur stdDeviation="3" result="c"/><feFlood flood-opacity="0.161"/><feComposite operator="in" in2="c"/><feComposite in="SourceGraphic"/></filter><filter id="d" x="6.742" y="-387.258" width="684.517" height="684.517" filterUnits="userSpaceOnUse"><feOffset dy="3" input="SourceAlpha"/><feGaussianBlur stdDeviation="3" result="e"/><feFlood flood-opacity="0.161"/><feComposite operator="in" in2="e"/><feComposite in="SourceGraphic"/></filter><filter id="f" x="41.742" y="-451.258" width="684.517" height="684.517" filterUnits="userSpaceOnUse"><feOffset dy="3" input="SourceAlpha"/><feGaussianBlur stdDeviation="3" result="g"/><feFlood flood-opacity="0.161"/><feComposite operator="in" in2="g"/><feComposite in="SourceGraphic"/></filter><filter id="h" x="-104.107" y="-421.496" width="883.603" height="881.554" filterUnits="userSpaceOnUse"><feOffset dy="3" input="SourceAlpha"/><feGaussianBlur stdDeviation="3" result="i"/><feFlood flood-opacity="0.161"/><feComposite operator="in" in2="i"/><feComposite in="SourceGraphic"/></filter></defs><g class="b" transform="translate(77)"><g class="c"><g class="i" transform="matrix(1, 0, 0, 1, -77, 0)"><circle class="d" cx="256" cy="256" r="256" transform="translate(470.46 357.26) rotate(-158)"/></g><g class="h" transform="matrix(1, 0, 0, 1, -77, 0)"><circle class="d" cx="256" cy="256" r="256" transform="translate(490.46 285.26) rotate(-158)"/></g><g class="g" transform="matrix(1, 0, 0, 1, -77, 0)"><circle class="d" cx="256" cy="256" r="256" transform="translate(525.46 221.26) rotate(-158)"/></g><g class="f" transform="matrix(1, 0, 0, 1, -77, 0)"><path class="e" d="M334.5,3.709C518.409,3.709,666,149.089,666,333S516.911,666,333,666,0,516.911,0,333,150.588,3.709,334.5,3.709Z" transform="translate(521.01 451.5) rotate(-158)"/></g></g></g></svg>